<svg version="1.1" viewBox="0.0 0.0 512.0 310.0" fill="none" stroke="none" stroke-linecap="square" stroke-miterlimit="10" xmlns:xlink="http://www.w3.org/1999/xlink" xmlns="http://www.w3.org/2000/svg"><clipPath id="g2d07eb37594_0_14.0"><path d="m0 0l512.0 0l0 310.0l-512.0 0l0 -310.0z" clip-rule="nonzero"/></clipPath><g clip-path="url(#g2d07eb37594_0_14.0)"><path fill="#373647" d="m0 0l512.0 0l0 512.0l-512.0 0z" fill-rule="evenodd"/><path shape-rendering="crispEdges" fill="#efefef" d="m23.97244 162.78215l48.0 0l0 48.0l-48.0 0l0 -48.0z" fill-rule="nonzero"/><path shape-rendering="crispEdges" fill="#efefef" d="m71.97244 162.78215l48.0 0l0 48.0l-48.0 0l0 -48.0z" fill-rule="nonzero"/><path shape-rendering="crispEdges" fill="#efefef" d="m119.97244 162.78215l48.0 0l0 48.0l-48.0 0l0 -48.0z" fill-rule="nonzero"/><path shape-rendering="crispEdges" fill="#efefef" d="m23.97244 210.78215l48.0 0l0 48.000015l-48.0 0l0 -48.000015z" fill-rule="nonzero"/><path shape-rendering="crispEdges" fill="#efefef" d="m71.97244 210.78215l48.0 0l0 48.000015l-48.0 0l0 -48.000015z" fill-rule="nonzero"/><path shape-rendering="crispEdges" fill="#efefef" d="m119.97244 210.78215l48.0 0l0 48.000015l-48.0 0l0 -48.000015z" fill-rule="nonzero"/><path shape-rendering="crispEdges" fill="#efefef" d="m23.97244 258.78217l48.0 0l0 48.0l-48.0 0l0 -48.0z" fill-rule="nonzero"/><path shape-rendering="crispEdges" fill="#efefef" d="m71.97244 258.78217l48.0 0l0 48.0l-48.0 0l0 -48.0z" fill-rule="nonzero"/><path shape-rendering="crispEdges" fill="#efefef" d="m119.97244 258.78217l48.0 0l0 48.0l-48.0 0l0 -48.0z" fill-rule="nonzero"/><path stroke="#373647" stroke-width="2.0" stroke-linecap="butt" d="m23.97244 161.78215l0 146.00002" fill-rule="nonzero"/><path stroke="#373647" stroke-width="2.0" stroke-linecap="butt" d="m71.97244 161.78215l0 146.00002" fill-rule="nonzero"/><path stroke="#373647" stroke-width="2.0" stroke-linecap="butt" d="m119.97244 161.78215l0 146.00002" fill-rule="nonzero"/><path stroke="#373647" stroke-width="2.0" stroke-linecap="butt" d="m167.97244 161.78215l0 146.00002" fill-rule="nonzero"/><path stroke="#373647" stroke-width="2.0" stroke-linecap="butt" d="m22.97244 162.78215l146.0 0" fill-rule="nonzero"/><path stroke="#373647" stroke-width="2.0" stroke-linecap="butt" d="m22.97244 210.78215l146.0 0" fill-rule="nonzero"/><path stroke="#373647" stroke-width="2.0" stroke-linecap="butt" d="m22.97244 258.78217l146.0 0" fill-rule="nonzero"/><path stroke="#373647" stroke-width="2.0" stroke-linecap="butt" d="m22.97244 306.78217l146.0 0" fill-rule="nonzero"/><path fill="#373647" d="m48.218582 177.89778q3.09375 0 5.390625 1.796875q2.296875 1.78125 2.640625 4.921875l-4.0 0q-0.40625 -1.609375 -1.453125 -2.40625q-1.046875 -0.796875 -2.5625 -0.796875q-2.484375 0 -3.84375 1.8125q-1.34375 1.796875 -1.34375 4.71875q0 2.765625 1.328125 4.5625q1.34375 1.796875 3.859375 1.796875q2.0 0 3.15625 -1.015625q1.171875 -1.015625 1.375 -3.078125l-4.21875 0l0 -3.125l8.0 0l0 10.296875l-2.671875 0l-0.421875 -2.140625q-1.03125 1.28125 -2.328125 1.9375q-1.296875 0.65625 -2.90625 0.65625q-2.71875 0 -4.875 -1.25q-2.140625 -1.265625 -3.3125 -3.546875q-1.15625 -2.296875 -1.15625 -5.09375q0 -4.390625 2.5625 -7.21875q2.5625 -2.828125 6.78125 -2.828125z" fill-rule="nonzero"/><path fill="#373647" d="m103.290634 178.3509l0 3.515625l-9.1875 0l0 4.40625l7.953125 0l0 3.25l-7.953125 0l0 7.859375l-4.203125 0l0 -19.03125l13.390625 0z" fill-rule="nonzero"/><path fill="#373647" d="m143.7141 177.89778q3.453125 0 5.53125 1.609375q2.09375 1.59375 2.09375 4.515625l-4.046875 0q-0.09375 -1.421875 -0.984375 -2.140625q-0.890625 -0.734375 -2.765625 -0.734375q-1.265625 0 -2.078125 0.5625q-0.8125 0.5625 -0.8125 1.609375q0 0.703125 0.328125 1.0625q0.34375 0.34375 1.390625 0.734375q1.046875 0.375 4.578125 1.21875q2.359375 0.5625 3.6875 1.9375q1.328125 1.359375 1.328125 3.453125q0 2.765625 -2.0625 4.4375q-2.0625 1.671875 -5.828125 1.671875q-3.59375 0 -5.859375 -1.765625q-2.265625 -1.765625 -2.265625 -4.890625l0 -0.109375l4.046875 0q0.03125 1.765625 1.1875 2.640625q1.15625 0.875 3.03125 0.875q1.6875 0 2.6875 -0.609375q1.015625 -0.625 1.015625 -1.765625q0 -0.921875 -0.78125 -1.515625q-0.765625 -0.59375 -2.46875 -1.015625q-2.1875 -0.5 -3.96875 -1.046875q-1.78125 -0.5625 -2.953125 -1.796875q-1.15625 -1.25 -1.15625 -3.1875q0 -2.5625 2.046875 -4.15625q2.046875 -1.59375 5.078125 -1.59375z" fill-rule="nonzero"/><path fill="#373647" d="m50.17002 226.3509l7.109375 19.015625l-4.34375 0l-1.421875 -4.234375l-7.125 0l-1.5 4.25l-4.234375 0l7.234375 -19.03125l4.28125 0zm-2.21875 4.6875l-2.46875 6.984375l4.9375 0l-2.40625 -6.984375l-0.0625 0z" fill-rule="nonzero"/><path fill="#373647" d="m103.41462 226.3509l0 3.515625l-10.046875 0l0 4.078125l9.203125 0l0 3.25l-9.203125 0l0 4.671875l10.25 0l0 3.515625l-14.453125 0l0 -19.03125l14.25 0z" fill-rule="nonzero"/><path fill="#373647" d="m142.10313 226.3509l0 15.515625l9.28125 0l0 3.515625l-13.484375 0l0 -19.03125l4.203125 0z" fill-rule="nonzero"/><path fill="#373647" d="m43.61519 274.3509l4.453125 13.078125l0.046875 0l4.203125 -13.03125l0.03125 -0.046875l5.859375 0l0 19.03125l-3.90625 0l0 -13.484375l-0.0625 0l-4.65625 13.484375l-3.21875 0l-4.671875 -13.359375l-0.0625 0l0 13.359375l-3.921875 0l0 -19.03125l5.90625 0z" fill-rule="nonzero"/><path fill="#373647" d="m103.76859 274.3509l0 3.515625l-5.703125 0l0 15.515625l-4.1875 0l0 -15.515625l-5.703125 0l0 -3.515625l15.59375 0z" fill-rule="nonzero"/><path fill="#373647" d="m146.55042 274.3509q2.3125 0 3.890625 1.484375q1.578125 1.484375 1.578125 3.78125q0 1.796875 -0.75 2.96875q-0.75 1.171875 -2.265625 1.796875l0 0.046875q1.34375 0.34375 2.046875 1.59375q0.71875 1.25 0.796875 3.828125q0.046875 2.578125 0.734375 3.53125l-4.1875 0q-0.375 -0.921875 -0.5 -3.0q-0.1875 -2.8125 -0.9375 -3.625q-0.75 -0.8125 -2.296875 -0.8125l-4.28125 0l0 7.4375l-4.203125 0l0 -19.03125l10.375 0zm-1.5 8.609375q1.3125 0 2.046875 -0.640625q0.734375 -0.640625 0.734375 -2.078125q0 -1.359375 -0.71875 -2.0q-0.703125 -0.640625 -2.0625 -0.640625l-4.671875 0l0 5.359375l4.671875 0z" fill-rule="nonzero"/><path shape-rendering="crispEdges" fill="#efefef" d="m344.02756 162.78215l48.0 0l0 48.0l-48.0 0l0 -48.0z" fill-rule="nonzero"/><path shape-rendering="crispEdges" fill="#efefef" d="m392.02756 162.78215l48.0 0l0 48.0l-48.0 0l0 -48.0z" fill-rule="nonzero"/><path shape-rendering="crispEdges" fill="#efefef" d="m440.02756 162.78215l48.0 0l0 48.0l-48.0 0l0 -48.0z" fill-rule="nonzero"/><path shape-rendering="crispEdges" fill="#efefef" d="m344.02756 210.78215l48.0 0l0 48.000015l-48.0 0l0 -48.000015z" fill-rule="nonzero"/><path shape-rendering="crispEdges" fill="#efefef" d="m392.02756 210.78215l48.0 0l0 48.000015l-48.0 0l0 -48.000015z" fill-rule="nonzero"/><path shape-rendering="crispEdges" fill="#efefef" d="m440.02756 210.78215l48.0 0l0 48.000015l-48.0 0l0 -48.000015z" fill-rule="nonzero"/><path shape-rendering="crispEdges" fill="#efefef" d="m344.02756 258.78217l48.0 0l0 48.0l-48.0 0l0 -48.0z" fill-rule="nonzero"/><path shape-rendering="crispEdges" fill="#efefef" d="m392.02756 258.78217l48.0 0l0 48.0l-48.0 0l0 -48.0z" fill-rule="nonzero"/><path shape-rendering="crispEdges" fill="#efefef" d="m440.02756 258.78217l48.0 0l0 48.0l-48.0 0l0 -48.0z" fill-rule="nonzero"/><path stroke="#373647" stroke-width="2.0" stroke-linecap="butt" d="m344.02756 161.78215l0 146.00002" fill-rule="nonzero"/><path stroke="#373647" stroke-width="2.0" stroke-linecap="butt" d="m392.02756 161.78215l0 146.00002" fill-rule="nonzero"/><path stroke="#373647" stroke-width="2.0" stroke-linecap="butt" d="m440.02756 161.78215l0 146.00002" fill-rule="nonzero"/><path stroke="#373647" stroke-width="2.0" stroke-linecap="butt" d="m488.02756 161.78215l0 146.00002" fill-rule="nonzero"/><path stroke="#373647" stroke-width="2.0" stroke-linecap="butt" d="m343.02756 162.78215l146.0 0" fill-rule="nonzero"/><path stroke="#373647" stroke-width="2.0" stroke-linecap="butt" d="m343.02756 210.78215l146.0 0" fill-rule="nonzero"/><path stroke="#373647" stroke-width="2.0" stroke-linecap="butt" d="m343.02756 258.78217l146.0 0" fill-rule="nonzero"/><path stroke="#373647" stroke-width="2.0" stroke-linecap="butt" d="m343.02756 306.78217l146.0 0" fill-rule="nonzero"/><path fill="#373647" d="m368.2737 177.89778q3.09375 0 5.390625 1.796875q2.296875 1.78125 2.640625 4.921875l-4.0 0q-0.40625 -1.609375 -1.453125 -2.40625q-1.046875 -0.796875 -2.5625 -0.796875q-2.484375 0 -3.84375 1.8125q-1.34375 1.796875 -1.34375 4.71875q0 2.765625 1.328125 4.5625q1.34375 1.796875 3.859375 1.796875q2.0 0 3.15625 -1.015625q1.171875 -1.015625 1.375 -3.078125l-4.21875 0l0 -3.125l8.0 0l0 10.296875l-2.671875 0l-0.421875 -2.140625q-1.03125 1.28125 -2.328125 1.9375q-1.296875 0.65625 -2.90625 0.65625q-2.71875 0 -4.875 -1.25q-2.140625 -1.265625 -3.3125 -3.546875q-1.15625 -2.296875 -1.15625 -5.09375q0 -4.390625 2.5625 -7.21875q2.5625 -2.828125 6.78125 -2.828125z" fill-rule="nonzero"/><path fill="#373647" d="m423.34576 178.3509l0 3.515625l-9.1875 0l0 4.40625l7.953125 0l0 3.25l-7.953125 0l0 7.859375l-4.203125 0l0 -19.03125l13.390625 0z" fill-rule="nonzero"/><path fill="#373647" d="m463.76923 177.89778q3.453125 0 5.53125 1.609375q2.09375 1.59375 2.09375 4.515625l-4.046875 0q-0.09375 -1.421875 -0.984375 -2.140625q-0.890625 -0.734375 -2.765625 -0.734375q-1.265625 0 -2.078125 0.5625q-0.8125 0.5625 -0.8125 1.609375q0 0.703125 0.328125 1.0625q0.34375 0.34375 1.390625 0.734375q1.046875 0.375 4.578125 1.21875q2.359375 0.5625 3.6875 1.9375q1.328125 1.359375 1.328125 3.453125q0 2.765625 -2.0625 4.4375q-2.0625 1.671875 -5.828125 1.671875q-3.59375 0 -5.859375 -1.765625q-2.265625 -1.765625 -2.265625 -4.890625l0 -0.109375l4.046875 0q0.03125 1.765625 1.1875 2.640625q1.15625 0.875 3.03125 0.875q1.6875 0 2.6875 -0.609375q1.015625 -0.625 1.015625 -1.765625q0 -0.921875 -0.78125 -1.515625q-0.765625 -0.59375 -2.46875 -1.015625q-2.1875 -0.5 -3.96875 -1.046875q-1.78125 -0.5625 -2.953125 -1.796875q-1.15625 -1.25 -1.15625 -3.1875q0 -2.5625 2.046875 -4.15625q2.046875 -1.59375 5.078125 -1.59375z" fill-rule="nonzero"/><path fill="#373647" d="m370.22513 226.3509l7.109375 19.015625l-4.34375 0l-1.421875 -4.234375l-7.125 0l-1.5 4.25l-4.234375 0l7.234375 -19.03125l4.28125 0zm-2.21875 4.6875l-2.46875 6.984375l4.9375 0l-2.40625 -6.984375l-0.0625 0z" fill-rule="nonzero"/><path fill="#373647" d="m423.46973 226.3509l0 3.515625l-10.046875 0l0 4.078125l9.203125 0l0 3.25l-9.203125 0l0 4.671875l10.25 0l0 3.515625l-14.453125 0l0 -19.03125l14.25 0z" fill-rule="nonzero"/><path fill="#373647" d="m462.15826 226.3509l0 15.515625l9.28125 0l0 3.515625l-13.484375 0l0 -19.03125l4.203125 0z" fill-rule="nonzero"/><path fill="#373647" d="m363.67032 274.3509l4.453125 13.078125l0.046875 0l4.203125 -13.03125l0.03125 -0.046875l5.859375 0l0 19.03125l-3.90625 0l0 -13.484375l-0.0625 0l-4.65625 13.484375l-3.21875 0l-4.671875 -13.359375l-0.0625 0l0 13.359375l-3.921875 0l0 -19.03125l5.90625 0z" fill-rule="nonzero"/><path fill="#373647" d="m423.8237 274.3509l0 3.515625l-5.703125 0l0 15.515625l-4.1875 0l0 -15.515625l-5.703125 0l0 -3.515625l15.59375 0z" fill-rule="nonzero"/><path fill="#373647" d="m466.60553 274.3509q2.3125 0 3.890625 1.484375q1.578125 1.484375 1.578125 3.78125q0 1.796875 -0.75 2.96875q-0.75 1.171875 -2.265625 1.796875l0 0.046875q1.34375 0.34375 2.046875 1.59375q0.71875 1.25 0.796875 3.828125q0.046875 2.578125 0.734375 3.53125l-4.1875 0q-0.375 -0.921875 -0.5 -3.0q-0.1875 -2.8125 -0.9375 -3.625q-0.75 -0.8125 -2.296875 -0.8125l-4.28125 0l0 7.4375l-4.203125 0l0 -19.03125l10.375 0zm-1.5 8.609375q1.3125 0 2.046875 -0.640625q0.734375 -0.640625 0.734375 -2.078125q0 -1.359375 -0.71875 -2.0q-0.703125 -0.640625 -2.0625 -0.640625l-4.671875 0l0 5.359375l4.671875 0z" fill-rule="nonzero"/><path shape-rendering="crispEdges" fill="#efefef" d="m184.0 162.78215l48.0 0l0 48.0l-48.0 0l0 -48.0z" fill-rule="nonzero"/><path shape-rendering="crispEdges" fill="#efefef" d="m232.0 162.78215l48.0 0l0 48.0l-48.0 0l0 -48.0z" fill-rule="nonzero"/><path shape-rendering="crispEdges" fill="#efefef" d="m280.0 162.78215l48.0 0l0 48.0l-48.0 0l0 -48.0z" fill-rule="nonzero"/><path shape-rendering="crispEdges" fill="#efefef" d="m184.0 210.78215l48.0 0l0 48.000015l-48.0 0l0 -48.000015z" fill-rule="nonzero"/><path shape-rendering="crispEdges" fill="#efefef" d="m232.0 210.78215l48.0 0l0 48.000015l-48.0 0l0 -48.000015z" fill-rule="nonzero"/><path shape-rendering="crispEdges" fill="#efefef" d="m280.0 210.78215l48.0 0l0 48.000015l-48.0 0l0 -48.000015z" fill-rule="nonzero"/><path shape-rendering="crispEdges" fill="#efefef" d="m184.0 258.78217l48.0 0l0 48.0l-48.0 0l0 -48.0z" fill-rule="nonzero"/><path shape-rendering="crispEdges" fill="#efefef" d="m232.0 258.78217l48.0 0l0 48.0l-48.0 0l0 -48.0z" fill-rule="nonzero"/><path shape-rendering="crispEdges" fill="#efefef" d="m280.0 258.78217l48.0 0l0 48.0l-48.0 0l0 -48.0z" fill-rule="nonzero"/><path stroke="#373647" stroke-width="2.0" stroke-linecap="butt" d="m184.0 161.78215l0 146.00002" fill-rule="nonzero"/><path stroke="#373647" stroke-width="2.0" stroke-linecap="butt" d="m232.0 161.78215l0 146.00002" fill-rule="nonzero"/><path stroke="#373647" stroke-width="2.0" stroke-linecap="butt" d="m280.0 161.78215l0 146.00002" fill-rule="nonzero"/><path stroke="#373647" stroke-width="2.0" stroke-linecap="butt" d="m328.0 161.78215l0 146.00002" fill-rule="nonzero"/><path stroke="#373647" stroke-width="2.0" stroke-linecap="butt" d="m183.0 162.78215l146.0 0" fill-rule="nonzero"/><path stroke="#373647" stroke-width="2.0" stroke-linecap="butt" d="m183.0 210.78215l146.0 0" fill-rule="nonzero"/><path stroke="#373647" stroke-width="2.0" stroke-linecap="butt" d="m183.0 258.78217l146.0 0" fill-rule="nonzero"/><path stroke="#373647" stroke-width="2.0" stroke-linecap="butt" d="m183.0 306.78217l146.0 0" fill-rule="nonzero"/><path fill="#373647" d="m208.24614 177.89778q3.09375 0 5.390625 1.796875q2.296875 1.78125 2.640625 4.921875l-4.0 0q-0.40625 -1.609375 -1.453125 -2.40625q-1.046875 -0.796875 -2.5625 -0.796875q-2.484375 0 -3.84375 1.8125q-1.34375 1.796875 -1.34375 4.71875q0 2.765625 1.328125 4.5625q1.34375 1.796875 3.859375 1.796875q2.0 0 3.15625 -1.015625q1.171875 -1.015625 1.375 -3.078125l-4.21875 0l0 -3.125l8.0 0l0 10.296875l-2.671875 0l-0.421875 -2.140625q-1.03125 1.28125 -2.328125 1.9375q-1.296875 0.65625 -2.90625 0.65625q-2.71875 0 -4.875 -1.25q-2.140625 -1.265625 -3.3125 -3.546875q-1.15625 -2.296875 -1.15625 -5.09375q0 -4.390625 2.5625 -7.21875q2.5625 -2.828125 6.78125 -2.828125z" fill-rule="nonzero"/><path fill="#373647" d="m263.31818 178.3509l0 3.515625l-9.187485 0l0 4.40625l7.9531097 0l0 3.25l-7.9531097 0l0 7.859375l-4.203125 0l0 -19.03125l13.39061 0z" fill-rule="nonzero"/><path fill="#373647" d="m303.74167 177.89778q3.453125 0 5.53125 1.609375q2.09375 1.59375 2.09375 4.515625l-4.046875 0q-0.09375 -1.421875 -0.984375 -2.140625q-0.890625 -0.734375 -2.765625 -0.734375q-1.265625 0 -2.078125 0.5625q-0.8125 0.5625 -0.8125 1.609375q0 0.703125 0.328125 1.0625q0.34375 0.34375 1.390625 0.734375q1.046875 0.375 4.578125 1.21875q2.359375 0.5625 3.6875 1.9375q1.328125 1.359375 1.328125 3.453125q0 2.765625 -2.0625 4.4375q-2.0625 1.671875 -5.828125 1.671875q-3.59375 0 -5.859375 -1.765625q-2.265625 -1.765625 -2.265625 -4.890625l0 -0.109375l4.046875 0q0.03125 1.765625 1.1875 2.640625q1.15625 0.875 3.03125 0.875q1.6875 0 2.6875 -0.609375q1.015625 -0.625 1.015625 -1.765625q0 -0.921875 -0.78125 -1.515625q-0.765625 -0.59375 -2.46875 -1.015625q-2.1875 -0.5 -3.96875 -1.046875q-1.78125 -0.5625 -2.953125 -1.796875q-1.15625 -1.25 -1.15625 -3.1875q0 -2.5625 2.046875 -4.15625q2.046875 -1.59375 5.078125 -1.59375z" fill-rule="nonzero"/><path fill="#373647" d="m210.19757 226.3509l7.109375 19.015625l-4.34375 0l-1.421875 -4.234375l-7.125 0l-1.5 4.25l-4.234375 0l7.234375 -19.03125l4.28125 0zm-2.21875 4.6875l-2.46875 6.984375l4.9375 0l-2.40625 -6.984375l-0.0625 0z" fill-rule="nonzero"/><path fill="#373647" d="m263.44217 226.3509l0 3.515625l-10.046875 0l0 4.078125l9.203125 0l0 3.25l-9.203125 0l0 4.671875l10.25 0l0 3.515625l-14.453125 0l0 -19.03125l14.25 0z" fill-rule="nonzero"/><path fill="#373647" d="m302.13068 226.3509l0 15.515625l9.28125 0l0 3.515625l-13.484375 0l0 -19.03125l4.203125 0z" fill-rule="nonzero"/><path fill="#373647" d="m203.64275 274.3509l4.453125 13.078125l0.046875 0l4.203125 -13.03125l0.03125 -0.046875l5.859375 0l0 19.03125l-3.90625 0l0 -13.484375l-0.0625 0l-4.65625 13.484375l-3.21875 0l-4.671875 -13.359375l-0.0625 0l0 13.359375l-3.921875 0l0 -19.03125l5.90625 0z" fill-rule="nonzero"/><path fill="#373647" d="m263.79614 274.3509l0 3.515625l-5.703125 0l0 15.515625l-4.1875 0l0 -15.515625l-5.703125 0l0 -3.515625l15.59375 0z" fill-rule="nonzero"/><path fill="#373647" d="m306.57797 274.3509q2.3125 0 3.890625 1.484375q1.578125 1.484375 1.578125 3.78125q0 1.796875 -0.75 2.96875q-0.75 1.171875 -2.265625 1.796875l0 0.046875q1.34375 0.34375 2.046875 1.59375q0.71875 1.25 0.796875 3.828125q0.046875 2.578125 0.734375 3.53125l-4.1875 0q-0.375 -0.921875 -0.5 -3.0q-0.1875 -2.8125 -0.9375 -3.625q-0.75 -0.8125 -2.296875 -0.8125l-4.28125 0l0 7.4375l-4.203125 0l0 -19.03125l10.375 0zm-1.5 8.609375q1.3125 0 2.046875 -0.640625q0.734375 -0.640625 0.734375 -2.078125q0 -1.359375 -0.71875 -2.0q-0.703125 -0.640625 -2.0625 -0.640625l-4.671875 0l0 5.359375l4.671875 0z" fill-rule="nonzero"/><path fill="#000000" fill-opacity="0.0" d="m47.856956 199.82677l0 24.881897" fill-rule="evenodd"/><path stroke="#373647" stroke-width="3.0" stroke-linejoin="round" stroke-linecap="butt" d="m47.856956 199.82677l0 6.881897" fill-rule="evenodd"/><path fill="#373647" stroke="#373647" stroke-width="3.0" stroke-linecap="butt" d="m42.901756 206.70866l4.9552 13.614288l4.9551964 -13.614288z" fill-rule="evenodd"/><path fill="#000000" fill-opacity="0.0" d="m47.856956 249.02625l0 24.881897" fill-rule="evenodd"/><path stroke="#373647" stroke-width="3.0" stroke-linejoin="round" stroke-linecap="butt" d="m47.856956 249.02625l0 6.881897" fill-rule="evenodd"/><path fill="#373647" stroke="#373647" stroke-width="3.0" stroke-linecap="butt" d="m42.901756 255.90814l4.9552 13.614288l4.9551964 -13.614288z" fill-rule="evenodd"/><path fill="#000000" fill-opacity="0.0" d="m208.58398 249.02625l0 24.881897" fill-rule="evenodd"/><path stroke="#373647" stroke-width="3.0" stroke-linejoin="round" stroke-linecap="butt" d="m208.58398 267.02625l0 6.881897" fill-rule="evenodd"/><path fill="#373647" stroke="#373647" stroke-width="3.0" stroke-linecap="butt" d="m213.53918 267.02625l-4.9552 -13.614288l-4.955185 13.614288z" fill-rule="evenodd"/><path fill="#000000" fill-opacity="0.0" d="m208.58398 199.82677l0 24.881897" fill-rule="evenodd"/><path stroke="#373647" stroke-width="3.0" stroke-linejoin="round" stroke-linecap="butt" d="m208.58398 217.82677l0 6.881897" fill-rule="evenodd"/><path fill="#373647" stroke="#373647" stroke-width="3.0" stroke-linecap="butt" d="m213.53918 217.82677l-4.9552 -13.614288l-4.955185 13.614288z" fill-rule="evenodd"/><path fill="#000000" fill-opacity="0.0" d="m78.714035 252.66347l-17.574802 17.606308" fill-rule="evenodd"/><path stroke="#373647" stroke-width="3.0" stroke-linejoin="round" stroke-linecap="butt" d="m65.99751 265.40277l-4.858284 4.8670044" fill-rule="evenodd"/><path fill="#373647" stroke="#373647" stroke-width="3.0" stroke-linecap="butt" d="m69.5045 268.9035l6.111145 -13.136093l-13.125122 6.134659z" fill-rule="evenodd"/><path fill="#000000" fill-opacity="0.0" d="m242.08148 221.07028l-17.574799 -17.606293" fill-rule="evenodd"/><path stroke="#373647" stroke-width="3.0" stroke-linejoin="round" stroke-linecap="butt" d="m229.36497 208.33098l-4.8582916 -4.866989" fill-rule="evenodd"/><path fill="#373647" stroke="#373647" stroke-width="3.0" stroke-linecap="butt" d="m225.85797 211.8317l13.125137 6.134659l-6.1111603 -13.136093z" fill-rule="evenodd"/><path fill="#000000" fill-opacity="0.0" d="m416.02756 199.82677l0 24.881897" fill-rule="evenodd"/><path stroke="#373647" stroke-width="3.0" stroke-linejoin="round" stroke-linecap="butt" d="m416.02756 199.82677l0 6.881897" fill-rule="evenodd"/><path fill="#373647" stroke="#373647" stroke-width="3.0" stroke-linecap="butt" d="m411.07236 206.70866l4.9552 13.614288l4.9552 -13.614288z" fill-rule="evenodd"/><path fill="#000000" fill-opacity="0.0" d="m428.90683 234.78215l24.881897 0" fill-rule="evenodd"/><path stroke="#373647" stroke-width="3.0" stroke-linejoin="round" stroke-linecap="butt" d="m428.90683 234.78215l6.881897 0" fill-rule="evenodd"/><path fill="#373647" stroke="#373647" stroke-width="3.0" stroke-linecap="butt" d="m435.78873 239.73735l13.614288 -4.9552l-13.614288 -4.9552z" fill-rule="evenodd"/><path fill="#000000" fill-opacity="0.0" d="m428.90564 270.26978l17.574799 -17.606308" fill-rule="evenodd"/><path stroke="#373647" stroke-width="3.0" stroke-linejoin="round" stroke-linecap="butt" d="m441.62216 257.53046l4.8582764 -4.866989" fill-rule="evenodd"/><path fill="#373647" stroke="#373647" stroke-width="3.0" stroke-linecap="butt" d="m438.11517 254.02974l-6.111145 13.136093l13.125122 -6.134674z" fill-rule="evenodd"/><path fill="#eeeeee" d="m209.23611 7.2229l47.055115 0l0 47.05512l-47.055115 0z" fill-rule="evenodd"/><path fill="#eeeeee" d="m209.23611 100.168175l47.055115 0l0 47.055122l-47.055115 0z" fill-rule="evenodd"/><path fill="#eeeeee" d="m255.70876 53.695538l47.05513 0l0 47.05512l-47.05513 0z" fill-rule="evenodd"/><path fill="#eeeeee" d="m209.23611 53.695538l47.055115 0l0 47.05512l-47.055115 0z" fill-rule="evenodd"/></g></svg>
